# xmcd
#
# Track frame offsets:
#	151
#	12961
#	25571
#	36658
#	50611
#	62216
#	78590
#	90921
#	103134
#	114037
#	126327
#	138643
#	148852
#	162727
#	172663
#
# Disc length: 2484 seconds
#
# Revision: 0
# Processed by: cddbd v1.5.2PL0 Copyright (c) Steve Scherf et al.
# Submitted via: EZCDAudioConverter 1.0.3.1
#
DISCID=cc09b20f
DTITLE=Various Artist - Absolute Country Legends
DYEAR=2000
DGENRE=Country
TTITLE0=Carl Perkins - Disciple In Blue Suede Shoes
TTITLE1=Johnny Paycheck - Take This Job And Shove It
TTITLE2=Waylon Jennings - Sweet Dreams
TTITLE3=Willie Nelson - No Tomorrow In Sight
TTITLE4=Billie Joe Royal - Your Cheatin' Heart
TTITLE5=Kenny Rogers - Tulsa Turnaround
TTITLE6=Jimmy Newman - Louisiana
TTITLE7=Billy Sunday - It Might As Well Be Spring
TTITLE8=Patsy Cline - Stop, Look And Listen
TTITLE9=Tommy Overstreet - If You're Looking For A Fool
TTITLE10=Tex Ritter - High Noon
TTITLE11=Bobby Bake - Help Me Make It Through The Night
TTITLE12=David Houston - My Woman Is Good To Me
TTITLE13=Faron Young - Hello Walls
TTITLE14=Freddy Fender - Wasted Days And Wasted Nights
EXTD=
EXTT0=
EXTT1=
EXTT2=
EXTT3=
EXTT4=
EXTT5=
EXTT6=
EXTT7=
EXTT8=
EXTT9=
EXTT10=
EXTT11=
EXTT12=
EXTT13=
EXTT14=
PLAYORDER=
